<svg xmlns="http://www.w3.org/2000/svg" xmlns:xlink="http://www.w3.org/1999/xlink" width="500" zoomAndPan="magnify" viewBox="0 0 375 374.999991" height="500" preserveAspectRatio="xMidYMid meet" version="1.0"><defs><g/><clipPath id="7111deb1de"><rect x="0" width="221" y="0" height="336"/></clipPath><clipPath id="cd25b70660"><path d="M 182 187 L 276 187 L 276 282 L 182 282 Z M 182 187 " clip-rule="nonzero"/></clipPath><clipPath id="e1624ee47d"><path d="M 182.941406 251.699219 L 244.472656 187.5 L 275.394531 217.136719 L 213.863281 281.335938 Z M 182.941406 251.699219 " clip-rule="nonzero"/></clipPath><clipPath id="69f592773a"><path d="M 0.878906 0.441406 L 93.519531 0.441406 L 93.519531 94.519531 L 0.878906 94.519531 Z M 0.878906 0.441406 " clip-rule="nonzero"/></clipPath><clipPath id="74f6f4524c"><path d="M 0.941406 64.699219 L 62.472656 0.5 L 93.394531 30.136719 L 31.863281 94.335938 Z M 0.941406 64.699219 " clip-rule="nonzero"/></clipPath><clipPath id="4d76ca1ab4"><rect x="0" width="94" y="0" height="95"/></clipPath><clipPath id="9be982a96b"><path d="M 187 125 L 281 125 L 281 221 L 187 221 Z M 187 125 " clip-rule="nonzero"/></clipPath><clipPath id="8d42d90a16"><path d="M 187.308594 189.953125 L 248.839844 125.75 L 280.28125 155.886719 L 218.75 220.085938 Z M 187.308594 189.953125 " clip-rule="nonzero"/></clipPath><clipPath id="3e7fc018bf"><path d="M 0.199219 0.519531 L 93.320312 0.519531 L 93.320312 95.320312 L 0.199219 95.320312 Z M 0.199219 0.519531 " clip-rule="nonzero"/></clipPath><clipPath id="d40a5cfce4"><path d="M 0.308594 64.953125 L 61.839844 0.75 L 93.28125 30.886719 L 31.75 95.085938 Z M 0.308594 64.953125 " clip-rule="nonzero"/></clipPath><clipPath id="abcdebff29"><rect x="0" width="94" y="0" height="96"/></clipPath><clipPath id="172def621b"><rect x="0" width="183" y="0" height="336"/></clipPath><clipPath id="f80b45d038"><path d="M 34.445312 191.871094 L 323.492188 191.871094 L 323.492188 228.386719 L 34.445312 228.386719 Z M 34.445312 191.871094 " clip-rule="nonzero"/></clipPath><clipPath id="9f5f086eae"><path d="M 0.445312 0.871094 L 289.492188 0.871094 L 289.492188 37.386719 L 0.445312 37.386719 Z M 0.445312 0.871094 " clip-rule="nonzero"/></clipPath><clipPath id="0122787cfe"><rect x="0" width="290" y="0" height="38"/></clipPath></defs><g transform="matrix(1, 0, 0, 1, 34, 19)"><g clip-path="url(#7111deb1de)"><g fill="#000000" fill-opacity="1"><g transform="translate(0.443818, 251.525654)"><g><path d="M 204.609375 -167.609375 L 204.609375 0 L 163.78125 0 L 163.78125 -100.515625 L 126.296875 0 L 93.34375 0 L 55.625 -100.75 L 55.625 0 L 14.796875 0 L 14.796875 -167.609375 L 63.03125 -167.609375 L 110.0625 -51.5625 L 156.625 -167.609375 Z M 204.609375 -167.609375 "/></g></g></g></g></g><g clip-path="url(#cd25b70660)"><g clip-path="url(#e1624ee47d)"><g transform="matrix(1, 0, 0, 1, 182, 187)"><g clip-path="url(#4d76ca1ab4)"><g clip-path="url(#69f592773a)"><g clip-path="url(#74f6f4524c)"><path fill="#f1f1f1" d="M 0.941406 64.699219 L 62.414062 0.558594 L 93.339844 30.195312 L 31.863281 94.335938 Z M 0.941406 64.699219 " fill-opacity="1" fill-rule="nonzero"/></g></g></g></g></g></g><g clip-path="url(#9be982a96b)"><g clip-path="url(#8d42d90a16)"><g transform="matrix(1, 0, 0, 1, 187, 125)"><g clip-path="url(#abcdebff29)"><g clip-path="url(#3e7fc018bf)"><g clip-path="url(#d40a5cfce4)"><path fill="#f1f1f1" d="M 0.308594 64.953125 L 61.875 0.714844 L 93.316406 30.851562 L 31.75 95.085938 Z M 0.308594 64.953125 " fill-opacity="1" fill-rule="nonzero"/></g></g></g></g></g></g><g transform="matrix(1, 0, 0, 1, 155, 34)"><g clip-path="url(#172def621b)"><g fill="#000000" fill-opacity="1"><g transform="translate(0.572026, 251.156091)"><g><path d="M 7.875 -84.046875 C 7.875 -100.597656 11.453125 -115.359375 18.609375 -128.328125 C 25.773438 -141.296875 35.765625 -151.398438 48.578125 -158.640625 C 61.398438 -165.890625 75.925781 -169.515625 92.15625 -169.515625 C 112.050781 -169.515625 129.082031 -164.257812 143.25 -153.75 C 157.414062 -143.25 166.882812 -128.925781 171.65625 -110.78125 L 126.78125 -110.78125 C 123.4375 -117.78125 118.695312 -123.109375 112.5625 -126.765625 C 106.4375 -130.429688 99.476562 -132.265625 91.6875 -132.265625 C 79.101562 -132.265625 68.910156 -127.882812 61.109375 -119.125 C 53.316406 -110.375 49.421875 -98.679688 49.421875 -84.046875 C 49.421875 -69.398438 53.316406 -57.695312 61.109375 -48.9375 C 68.910156 -40.1875 79.101562 -35.8125 91.6875 -35.8125 C 99.476562 -35.8125 106.4375 -37.640625 112.5625 -41.296875 C 118.695312 -44.960938 123.4375 -50.296875 126.78125 -57.296875 L 171.65625 -57.296875 C 166.882812 -39.148438 157.414062 -24.863281 143.25 -14.4375 C 129.082031 -4.019531 112.050781 1.1875 92.15625 1.1875 C 75.925781 1.1875 61.398438 -2.429688 48.578125 -9.671875 C 35.765625 -16.910156 25.773438 -26.972656 18.609375 -39.859375 C 11.453125 -52.753906 7.875 -67.484375 7.875 -84.046875 Z M 7.875 -84.046875 "/></g></g></g></g></g><g clip-path="url(#f80b45d038)"><g transform="matrix(1, 0, 0, 1, 34, 191)"><g clip-path="url(#0122787cfe)"><g clip-path="url(#9f5f086eae)"><path fill="#f1f1f1" d="M 0.445312 0.871094 L 289.445312 0.871094 L 289.445312 37.386719 L 0.445312 37.386719 Z M 0.445312 0.871094 " fill-opacity="1" fill-rule="nonzero"/></g></g></g></g><g fill="#000000" fill-opacity="1"><g transform="translate(100.718432, 219.365626)"><g><path d="M 23.265625 -19.0625 L 23.265625 0 L 18.625 0 L 18.625 -11.4375 L 14.359375 0 L 10.625 0 L 6.328125 -11.453125 L 6.328125 0 L 1.6875 0 L 1.6875 -19.0625 L 7.171875 -19.0625 L 12.515625 -5.859375 L 17.8125 -19.0625 Z M 23.265625 -19.0625 "/></g></g></g><g fill="#000000" fill-opacity="1"><g transform="translate(128.294228, 219.365626)"><g><path d="M 6.25 -19.0625 L 6.25 -7.65625 C 6.25 -6.519531 6.523438 -5.640625 7.078125 -5.015625 C 7.640625 -4.398438 8.46875 -4.09375 9.5625 -4.09375 C 10.644531 -4.09375 11.472656 -4.398438 12.046875 -5.015625 C 12.628906 -5.640625 12.921875 -6.519531 12.921875 -7.65625 L 12.921875 -19.0625 L 17.5625 -19.0625 L 17.5625 -7.6875 C 17.5625 -5.976562 17.195312 -4.535156 16.46875 -3.359375 C 15.75 -2.191406 14.78125 -1.304688 13.5625 -0.703125 C 12.34375 -0.109375 10.984375 0.1875 9.484375 0.1875 C 7.972656 0.1875 6.625 -0.101562 5.4375 -0.6875 C 4.257812 -1.28125 3.328125 -2.164062 2.640625 -3.34375 C 1.953125 -4.53125 1.609375 -5.976562 1.609375 -7.6875 L 1.609375 -19.0625 Z M 6.25 -19.0625 "/></g></g></g><g fill="#000000" fill-opacity="1"><g transform="translate(150.089087, 219.365626)"><g/></g></g><g fill="#000000" fill-opacity="1"><g transform="translate(158.515303, 219.365626)"><g><path d="M 1.171875 -9.484375 C 1.171875 -11.328125 1.585938 -12.984375 2.421875 -14.453125 C 3.253906 -15.929688 4.390625 -17.085938 5.828125 -17.921875 C 7.265625 -18.753906 8.863281 -19.171875 10.625 -19.171875 C 12.6875 -19.171875 14.484375 -18.671875 16.015625 -17.671875 C 17.554688 -16.679688 18.679688 -15.269531 19.390625 -13.4375 L 16.421875 -13.4375 C 15.898438 -14.582031 15.144531 -15.460938 14.15625 -16.078125 C 13.175781 -16.691406 12 -17 10.625 -17 C 9.300781 -17 8.113281 -16.691406 7.0625 -16.078125 C 6.007812 -15.460938 5.179688 -14.585938 4.578125 -13.453125 C 3.984375 -12.328125 3.6875 -11.003906 3.6875 -9.484375 C 3.6875 -7.972656 3.984375 -6.648438 4.578125 -5.515625 C 5.179688 -4.390625 6.007812 -3.519531 7.0625 -2.90625 C 8.113281 -2.289062 9.300781 -1.984375 10.625 -1.984375 C 12 -1.984375 13.175781 -2.285156 14.15625 -2.890625 C 15.144531 -3.492188 15.898438 -4.367188 16.421875 -5.515625 L 19.390625 -5.515625 C 18.679688 -3.703125 17.554688 -2.300781 16.015625 -1.3125 C 14.484375 -0.332031 12.6875 0.15625 10.625 0.15625 C 8.863281 0.15625 7.265625 -0.253906 5.828125 -1.078125 C 4.390625 -1.898438 3.253906 -3.039062 2.421875 -4.5 C 1.585938 -5.96875 1.171875 -7.628906 1.171875 -9.484375 Z M 1.171875 -9.484375 "/></g></g></g><g fill="#000000" fill-opacity="1"><g transform="translate(182.128571, 219.365626)"><g><path d="M 4.515625 -18.921875 L 4.515625 -6.953125 C 4.515625 -5.265625 4.925781 -4.015625 5.75 -3.203125 C 6.570312 -2.390625 7.710938 -1.984375 9.171875 -1.984375 C 10.617188 -1.984375 11.753906 -2.390625 12.578125 -3.203125 C 13.410156 -4.015625 13.828125 -5.265625 13.828125 -6.953125 L 13.828125 -18.921875 L 16.296875 -18.921875 L 16.296875 -6.984375 C 16.296875 -5.398438 15.976562 -4.070312 15.34375 -3 C 14.707031 -1.925781 13.847656 -1.125 12.765625 -0.59375 C 11.691406 -0.0703125 10.488281 0.1875 9.15625 0.1875 C 7.8125 0.1875 6.597656 -0.0703125 5.515625 -0.59375 C 4.441406 -1.125 3.59375 -1.925781 2.96875 -3 C 2.34375 -4.070312 2.03125 -5.398438 2.03125 -6.984375 L 2.03125 -18.921875 Z M 4.515625 -18.921875 "/></g></g></g><g fill="#000000" fill-opacity="1"><g transform="translate(203.109206, 219.365626)"><g><path d="M 12.0625 0 L 7.546875 -7.734375 L 4.5625 -7.734375 L 4.5625 0 L 2.09375 0 L 2.09375 -18.921875 L 8.203125 -18.921875 C 9.628906 -18.921875 10.835938 -18.675781 11.828125 -18.1875 C 12.816406 -17.707031 13.550781 -17.050781 14.03125 -16.21875 C 14.519531 -15.382812 14.765625 -14.429688 14.765625 -13.359375 C 14.765625 -12.054688 14.390625 -10.90625 13.640625 -9.90625 C 12.890625 -8.914062 11.765625 -8.253906 10.265625 -7.921875 L 15.015625 0 Z M 4.5625 -9.71875 L 8.203125 -9.71875 C 9.535156 -9.71875 10.535156 -10.046875 11.203125 -10.703125 C 11.878906 -11.367188 12.21875 -12.253906 12.21875 -13.359375 C 12.21875 -14.484375 11.882812 -15.351562 11.21875 -15.96875 C 10.5625 -16.582031 9.554688 -16.890625 8.203125 -16.890625 L 4.5625 -16.890625 Z M 4.5625 -9.71875 "/></g></g></g><g fill="#000000" fill-opacity="1"><g transform="translate(222.271433, 219.365626)"><g><path d="M 17.734375 -18.921875 L 10.59375 0 L 7.734375 0 L 0.59375 -18.921875 L 3.234375 -18.921875 L 9.171875 -2.609375 L 15.125 -18.921875 Z M 17.734375 -18.921875 "/></g></g></g><g fill="#000000" fill-opacity="1"><g transform="translate(243.279214, 219.365626)"><g><path d="M 4.5625 -16.921875 L 4.5625 -10.59375 L 11.453125 -10.59375 L 11.453125 -8.546875 L 4.5625 -8.546875 L 4.5625 -2.03125 L 12.28125 -2.03125 L 12.28125 0 L 2.09375 0 L 2.09375 -18.953125 L 12.28125 -18.953125 L 12.28125 -16.921875 Z M 4.5625 -16.921875 "/></g></g></g></svg>